<?xml version="1.0" encoding="utf-8"?>
<!-- Generator: Adobe Illustrator 16.0.0, SVG Export Plug-In . SVG Version: 6.00 Build 0)  -->
<!DOCTYPE svg PUBLIC "-//W3C//DTD SVG 1.1//EN" "http://www.w3.org/Graphics/SVG/1.1/DTD/svg11.dtd">
<svg version="1.1" xmlns="http://www.w3.org/2000/svg" xmlns:xlink="http://www.w3.org/1999/xlink" x="0px" y="0px" width="16px"
	 height="16px" viewBox="0 0 16 16" style="enable-background:new 0 0 16 16;" xml:space="preserve">
<g id="Layer_1">
	<g id="Shape_2_3_">
		<g>
			<path style="fill:#E6E6E5;" d="M15,0H1C0.448,0,0,0.448,0,1v10c0,0.552,0.448,1,1,1h3v4l6-4h5c0.552,0,1-0.448,1-1V1
				C16,0.448,15.552,0,15,0z"/>
		</g>
	</g>
</g>
<g id="Layer_2">
	<g id="Shape_2_2_">
		<g>
			<path style="fill:#FFFFFF;" d="M14.459,0.594H2.072c-0.488,0-0.885,0.396-0.885,0.883v8.828c0,0.488,0.397,0.883,0.885,0.883
				h2.654v3.531l5.309-3.531h4.424c0.489,0,0.885-0.395,0.885-0.883V1.477C15.344,0.99,14.948,0.594,14.459,0.594z"/>
		</g>
	</g>
</g>
</svg>
